<?xml version="1.0" encoding="UTF-8"?>
<svg id="Calque_1" data-name="Calque 1" xmlns="http://www.w3.org/2000/svg" viewBox="0 0 947.25 947.25">
  <path d="m370.49,338.37h-164.77c-37.35,0-71.11,15.2-95.58,39.67-24.48,24.48-39.59,58.23-39.59,95.66v8.24c0,14.96-12.08,27.03-27.03,27.03h-16.56c-14.88,0-26.95-12.08-26.95-27.03v-16.56c0-1.44.08-2.96.4-4.32,3.12-51.83,25.35-98.46,59.83-132.93,37.27-37.35,88.7-60.31,145.49-60.31h164.77c37.51,0,72.63,10,102.94,27.75.08,0,.08-.08.16-.08,26.79-15.68,57.51-25.28,90.3-27.27,1.44-.24,2.96-.4,4.48-.4h16.64c14.88,0,26.95,12.08,26.95,26.95v16.56c0,14.88-12.08,26.95-26.95,26.95h-8.32c-15.76,0-30.87,2.72-44.87,7.6h-.08q0,.08.08.16c27.91,35.03,44.47,79.34,44.47,127.65,0,39.83-11.28,77.02-30.95,108.54-22.8-8-42.79-22-58.23-40.07v-.08q.08-.16.16-.24c11.76-20.08,18.4-43.27,18.4-68.15,0-33.35-12-63.91-32.07-87.42v-.08c-2-2.24-3.92-4.4-6-6.56-14.4-15.04-32.31-26.55-52.31-33.51-14-5.04-29.11-7.76-44.79-7.76Z"/>
  <path d="m947.25,465.31v16.56c0,1.52-.08,2.96-.4,4.32-3.12,51.91-25.43,98.54-59.83,132.93-37.35,37.35-88.78,60.31-145.57,60.31h-164.77c-37.51,0-72.71-10-103.02-27.75,0,.08-.08.08-.08.08-26.87,15.68-57.59,25.27-90.38,27.27-1.44.24-2.88.4-4.4.4h-16.56c-14.88,0-26.95-12.08-26.95-26.96v-16.56c0-14.88,12.08-26.95,26.95-26.95h8.24c15.84,0,30.87-2.72,44.87-7.6v-.08c-27.91-35.03-44.47-79.42-44.47-127.73,0-39.83,11.36-77.02,30.95-108.46,22.8,7.92,42.79,21.92,58.31,39.99v.16q-.16.08-.24.16c-11.68,20.08-18.4,43.27-18.4,68.15,0,33.35,12,63.91,32.07,87.42,15.36,18.24,35.43,32.23,58.39,40.15,14,5.04,29.03,7.76,44.71,7.76h164.77c37.35,0,71.11-15.2,95.58-39.59,24.48-24.48,39.59-58.31,39.59-95.74v-8.24c0-14.96,12.08-27.03,27.03-27.03h16.56c14.96,0,27.03,12.08,27.03,27.03Z"/>
</svg>