<?xml version="1.0" encoding="UTF-8"?>
<svg id="Calque_1" data-name="Calque 1" xmlns="http://www.w3.org/2000/svg" viewBox="0 0 947.25 947.25">
  <defs>
    <style>
      .cls-1 {
        font-family: Calibri-Bold, Calibri;
        font-size: 335.58px;
        font-weight: 700;
      }
    </style>
  </defs>
  <g>
    <path d="m374.62,171.24h-158.16c-35.86,0-68.26,14.59-91.75,38.08-23.49,23.49-38.01,55.89-38.01,91.83v7.91c0,14.36-11.59,25.95-25.95,25.95h-15.89c-14.28,0-25.87-11.59-25.87-25.95v-15.89c0-1.38.08-2.84.38-4.15,2.99-49.75,24.34-94.51,57.43-127.6,35.78-35.86,85.15-57.89,139.66-57.89h158.16c36.01,0,69.71,9.6,98.81,26.64.08,0,.08-.08.15-.08,25.72-15.05,55.2-24.26,86.68-26.18,1.38-.23,2.84-.38,4.3-.38h15.97c14.28,0,25.87,11.59,25.87,25.87v15.89c0,14.28-11.59,25.87-25.87,25.87h-7.99c-15.13,0-29.64,2.61-43.07,7.29h-.08q0,.08.08.15c26.8,33.63,42.69,76.16,42.69,122.54,0,38.24-10.83,73.94-29.71,104.19-21.88-7.68-41.08-21.11-55.89-38.47v-.08q.08-.15.15-.23c11.29-19.27,17.66-41.54,17.66-65.41,0-32.02-11.52-61.35-30.79-83.92v-.08c-1.92-2.15-3.76-4.22-5.76-6.3-13.82-14.43-31.02-25.49-50.21-32.17-13.44-4.84-27.95-7.45-43-7.45Z"/>
    <path d="m928.27,293.09v15.89c0,1.46-.08,2.84-.38,4.15-2.99,49.83-24.42,94.59-57.43,127.6-35.86,35.86-85.22,57.89-139.74,57.89h-158.16c-36.01,0-69.79-9.6-98.89-26.64,0,.08-.08.08-.08.08-25.8,15.05-55.28,24.26-86.76,26.18-1.38.23-2.76.38-4.22.38h-15.89c-14.28,0-25.87-11.59-25.87-25.87v-15.89c0-14.28,11.59-25.87,25.87-25.87h7.91c15.2,0,29.64-2.61,43.07-7.29v-.08c-26.8-33.63-42.69-76.24-42.69-122.61,0-38.24,10.9-73.94,29.71-104.11,21.88,7.6,41.08,21.04,55.97,38.39v.15q-.15.08-.23.15c-11.21,19.27-17.66,41.54-17.66,65.41,0,32.02,11.52,61.35,30.79,83.92,14.74,17.51,34.01,30.94,56.05,38.54,13.44,4.84,27.87,7.45,42.92,7.45h158.16c35.86,0,68.26-14.59,91.75-38.01,23.49-23.49,38-55.97,38-91.9v-7.91c0-14.36,11.59-25.95,25.95-25.95h15.89c14.36,0,25.95,11.59,25.95,25.95Z"/>
  </g>
  <text class="cls-1" transform="translate(0 726.57)"><tspan x="0" y="0">NEXUS</tspan></text>
</svg>